<!DOCTYPE svg PUBLIC "-//W3C//DTD SVG 1.1//EN" "http://www.w3.org/Graphics/SVG/1.1/DTD/svg11.dtd">
<!-- Uploaded to: SVG Find, www.svgrepo.com, Transformed by: SVG Find Mixer Tools -->
<svg fill="#DDF4FF" width="800px" height="800px" version="1.1" viewBox="144 144 512 512" xmlns="http://www.w3.org/2000/svg" stroke="#DDF4FF">
<g id="SVGRepo_bgCarrier" stroke-width="0"/>
<g id="SVGRepo_tracerCarrier" stroke-linecap="round" stroke-linejoin="round"/>
<g id="SVGRepo_iconCarrier"> <g> <path d="m352.77 195.32h-125.95c-17.355 0-31.488 14.133-31.488 31.488v125.95c0 17.359 14.129 31.488 31.488 31.488h125.95c17.359 0 31.488-14.129 31.488-31.488v-125.95c0-17.355-14.129-31.488-31.488-31.488z"/> <path d="m573.18 195.32h-125.95c-17.359 0-31.488 14.129-31.488 31.488v125.95c0 17.359 14.129 31.488 31.488 31.488h125.95c17.359 0 31.488-14.129 31.488-31.488v-125.95c0-17.355-14.133-31.488-31.488-31.488z"/> <path d="m352.77 415.74h-125.95c-17.359 0-31.488 14.129-31.488 31.488v125.95c0 17.359 14.129 31.488 31.488 31.488h125.95c17.359 0 31.488-14.129 31.488-31.488v-125.95c0-17.359-14.129-31.488-31.488-31.488z"/> <path d="m573.18 415.74h-125.95c-17.359 0-31.488 14.129-31.488 31.488v125.95c0 17.359 14.129 31.488 31.488 31.488h125.95c17.359 0 31.488-14.129 31.488-31.488v-125.95c0-17.359-14.133-31.488-31.488-31.488z"/> </g> </g>
</svg>